<svg width="20.000000" height="20.000000" viewBox="0 0 20 20" fill="none" xmlns="http://www.w3.org/2000/svg" xmlns:xlink="http://www.w3.org/1999/xlink">
	<desc>
			Created with Pixso.
	</desc>
	<defs/>
	<path id="Vector" d="M15.34 3.45996C15.1027 3.45996 14.8707 3.53027 14.6733 3.66211C14.476 3.79395 14.3221 3.98145 14.2313 4.20068C14.1405 4.41992 14.1168 4.66113 14.1631 4.89404C14.2094 5.12695 14.3237 5.34082 14.4915 5.5083C14.6593 5.67627 14.8731 5.79053 15.1059 5.83691C15.3387 5.8833 15.58 5.85938 15.7992 5.76855C16.0185 5.67773 16.2059 5.52393 16.3378 5.32666C16.4696 5.12939 16.54 4.89746 16.54 4.66016C16.54 4.3418 16.4136 4.03662 16.1885 3.81152C15.9635 3.58643 15.6583 3.45996 15.34 3.45996ZM19.94 5.87988C19.9205 5.05029 19.7651 4.22949 19.48 3.4502C19.2257 2.7832 18.83 2.1792 18.32 1.68018C17.8248 1.16748 17.2195 0.774414 16.55 0.529785C15.7726 0.236328 14.9509 0.0771484 14.12 0.0600586C13.06 0 12.72 0 10 0C7.28003 0 6.94 0 5.88 0.0600586C5.04913 0.0771484 4.22736 0.236328 3.45001 0.529785C2.78168 0.776855 2.17694 1.16943 1.67999 1.68018C1.16742 2.17529 0.77417 2.78027 0.530029 3.4502C0.236145 4.22754 0.0772095 5.04932 0.0599976 5.87988C0 6.93994 0 7.27979 0 10C0 12.7202 0 13.0601 0.0599976 14.1201C0.0772095 14.9507 0.236145 15.7725 0.530029 16.5498C0.77417 17.2197 1.16742 17.8247 1.67999 18.3198C2.17694 18.8306 2.78168 19.2231 3.45001 19.4702C4.22736 19.7637 5.04913 19.9229 5.88 19.9399C6.94 20 7.28003 20 10 20C12.72 20 13.06 20 14.12 19.9399C14.9509 19.9229 15.7726 19.7637 16.55 19.4702C17.2195 19.2256 17.8248 18.8325 18.32 18.3198C18.8322 17.8228 19.2283 17.2183 19.48 16.5498C19.7651 15.7705 19.9205 14.9497 19.94 14.1201C19.94 13.0601 20 12.7202 20 10C20 7.27979 20 6.93994 19.94 5.87988ZM18.14 14C18.1327 14.6348 18.0178 15.2637 17.8 15.8599C17.6403 16.2954 17.3839 16.6885 17.05 17.0098C16.7256 17.3403 16.3333 17.5962 15.9 17.7598C15.3037 17.9775 14.6747 18.0928 14.04 18.1001C13.04 18.1499 12.67 18.1602 10.04 18.1602C7.40997 18.1602 7.03998 18.1602 6.03998 18.1001C5.38092 18.1123 4.72461 18.0107 4.09998 17.7998C3.68579 17.6279 3.31134 17.3726 3 17.0498C2.66809 16.7285 2.41486 16.335 2.26001 15.8999C2.01587 15.2949 1.88043 14.6519 1.85999 14C1.85999 13 1.79999 12.6299 1.79999 10C1.79999 7.37012 1.79999 7 1.85999 6C1.8645 5.35107 1.98297 4.70801 2.21002 4.1001C2.38605 3.67773 2.65625 3.30176 3 3C3.30383 2.65625 3.67926 2.3833 4.09998 2.2002C4.70953 1.97998 5.35199 1.86523 6 1.85986C7 1.85986 7.37 1.7998 10 1.7998C12.63 1.7998 13 1.7998 14 1.85986C14.6348 1.86719 15.2637 1.98242 15.86 2.2002C16.3145 2.36865 16.7223 2.64307 17.05 3C17.3777 3.30713 17.6338 3.68262 17.8 4.1001C18.0223 4.70898 18.1373 5.35156 18.14 6C18.19 7 18.2 7.37012 18.2 10C18.2 12.6299 18.19 13 18.14 14ZM10 4.87012C8.98584 4.87207 7.99493 5.17432 7.15265 5.73926C6.31036 6.3042 5.65436 7.10596 5.26764 8.04395C4.88086 8.98145 4.7807 10.0127 4.9798 11.0068C5.17889 12.0015 5.66821 12.9146 6.38605 13.6309C7.10394 14.3477 8.01801 14.835 9.01288 15.0322C10.0077 15.2295 11.0387 15.127 11.9755 14.7388C12.9123 14.3501 13.7129 13.6924 14.2761 12.8491C14.8394 12.0059 15.14 11.0142 15.14 10C15.1413 9.3252 15.0092 8.65674 14.7512 8.03271C14.4933 7.40918 14.1146 6.84277 13.6368 6.36621C13.1592 5.88916 12.5919 5.51172 11.9678 5.25488C11.3436 4.99805 10.6749 4.86719 10 4.87012ZM10 13.3301C9.34137 13.3301 8.69757 13.1348 8.14996 12.7686C7.60236 12.4028 7.17554 11.8828 6.92346 11.2744C6.67145 10.666 6.60547 9.99609 6.73401 9.35059C6.86249 8.70459 7.17963 8.11084 7.64532 7.64551C8.11102 7.17969 8.70441 6.8623 9.35034 6.73389C9.99628 6.60547 10.6658 6.67139 11.2744 6.92334C11.8828 7.17529 12.4029 7.60254 12.7688 8.1499C13.1347 8.69775 13.33 9.34131 13.33 10C13.33 10.4375 13.2439 10.8701 13.0765 11.2744C12.9092 11.6782 12.6639 12.0454 12.3547 12.3545C12.0455 12.6641 11.6783 12.9092 11.2744 13.0767C10.8703 13.2437 10.4373 13.3301 10 13.3301Z" fill="#F5EFDB" fill-opacity="1.000000" fill-rule="nonzero"/>
</svg>
